<svg xmlns="http://www.w3.org/2000/svg" viewBox="0 0 200 140" role="img" aria-label="Decorative flower">
  <defs>
    <filter id="softShadow" x="-50%" y="-50%" width="200%" height="200%">
      <feDropShadow dx="0" dy="3" stdDeviation="3" flood-opacity="0.18" />
    </filter>
    <linearGradient id="petalGrad" x1="0" x2="1" y1="0" y2="1">
      <stop offset="0%" stop-color="#ffd1e8"/>
      <stop offset="100%" stop-color="#ffb4d0"/>
    </linearGradient>
    <radialGradient id="centerGrad" cx="50%" cy="50%" r="50%">
      <stop offset="0%" stop-color="#fff3b8"/>
      <stop offset="100%" stop-color="#ffd93d"/>
    </radialGradient>
  </defs>

  <!-- Stem and leaves -->
  <g filter="url(#softShadow)">
    <path d="M100 78 C100 98 86 110 86 124" fill="none" stroke="#9edbbf" stroke-width="3"/>
    <path d="M100 78 C100 98 114 110 114 124" fill="none" stroke="#9edbbf" stroke-width="3"/>
    <path d="M82 112 C90 108 96 108 102 112 C96 118 90 118 82 112Z" fill="#a8e6cf"/>
    <path d="M118 112 C110 108 104 108 98 112 C104 118 110 118 118 112Z" fill="#a8e6cf"/>
  </g>

  <!-- Flower -->
  <g transform="translate(100 64)">
    <!-- 6 petals -->
    <g>
      <ellipse rx="16" ry="28" fill="url(#petalGrad)" transform="rotate(0) translate(0 -30)"/>
      <ellipse rx="16" ry="28" fill="url(#petalGrad)" transform="rotate(60) translate(0 -30)"/>
      <ellipse rx="16" ry="28" fill="url(#petalGrad)" transform="rotate(120) translate(0 -30)"/>
      <ellipse rx="16" ry="28" fill="url(#petalGrad)" transform="rotate(180) translate(0 -30)"/>
      <ellipse rx="16" ry="28" fill="url(#petalGrad)" transform="rotate(240) translate(0 -30)"/>
      <ellipse rx="16" ry="28" fill="url(#petalGrad)" transform="rotate(300) translate(0 -30)"/>
    </g>
    <!-- center -->
    <circle r="14" fill="url(#centerGrad)" stroke="#f6c81a" stroke-width="2"/>
  </g>
</svg>


